<?xml version="1.0" encoding="utf-8"?>
<!-- Generator: Adobe Illustrator 22.0.1, SVG Export Plug-In . SVG Version: 6.00 Build 0)  -->
<svg version="1.1" id="Layer_1" xmlns="http://www.w3.org/2000/svg" xmlns:xlink="http://www.w3.org/1999/xlink" x="0px" y="0px"
	 viewBox="0 0 1334 1334" style="enable-background:new 0 0 1334 1334;" xml:space="preserve">
<style type="text/css">
	.st0{fill:#2E92FF;}
	.st1{fill:#FFFFFF;}
	.st2{fill:none;stroke:#FF74E1;stroke-width:15;stroke-miterlimit:10;}
	.st3{fill:none;stroke:#000000;stroke-width:15;stroke-miterlimit:10;}
	.st4{fill:none;stroke:#000000;stroke-width:15;stroke-miterlimit:10;stroke-dasharray:19.5218,9.7609;}
	.st5{fill:none;stroke:#000000;stroke-width:15;stroke-miterlimit:10;stroke-dasharray:19.9694,9.9847;}
	.st6{fill:none;stroke:#000000;stroke-width:15;stroke-miterlimit:10;stroke-dasharray:19.9851,9.9925;}
	.st7{fill:none;}
	.st8{fill:#F51FFF;stroke:#000000;stroke-width:11;stroke-miterlimit:10;}
	.st9{font-family:'TrashHand';}
	.st10{font-size:230px;}
</style>
<g>
	<path class="st0" d="M533.4,390.7l-37.8,9.2c-49.7,12.1-93.1,39.9-122.3,78.6l-2.9,3.8c-19.4,25.7-29.8,56.2-29.8,87.4v4
		c0,41.6,23.3,80.4,61.7,102.7l0.1,0c31.7,18.4,68.8,35.9,106.2,39l68,8.2c7.3,0.6,79.7-2.7,87-2.7l110-9.1l14.4,24
		c25.4,28.1,57.8,50.1,94.5,64.1L944,809l-41.7-33.7c-16.4-19-28-41-34.1-64.5l-5.7-21.8l42.3-22.7c44.4-23.9,75.8-63.8,86.5-109.9
		l0.2-1c8.3-36,0.3-73.6-22.2-104.2l0,0c-28.5-38.8-73.7-64.7-124.3-71.5l-4.6-0.6c-57.1-7.7-115-9.1-172.5-4.2l-77.5,6.6
		C571.2,383.1,552.1,386.2,533.4,390.7z"/>
	<g>
		
			<image style="overflow:visible;opacity:0.75;" width="751" height="533" xlink:href="A1D0871B.png"  transform="matrix(1 0 0 1 306 338)">
		</image>
		<path class="st1" d="M735.2,372c35.2,0,70.4,2.3,105.3,7l4.6,0.6c50.6,6.8,95.7,32.8,124.3,71.5h0c22.5,30.6,30.5,68.1,22.2,104.2
			l-0.2,1c-10.7,46.1-42,86-86.5,109.9l-42.3,22.7l5.7,21.8c6.1,23.5,17.8,45.5,34.1,64.5L944,809l-61.6-9.2
			c-36.7-14.1-69.2-36.1-94.5-64.1l-14.4-24l-110,9.1c-6.7,0-68.3,2.8-84,2.8c-1.4,0-2.4,0-3-0.1l-68-8.2
			c-37.4-3-74.5-20.6-106.2-39l-0.1,0c-38.5-22.3-61.7-61.1-61.7-102.7v-4c0-31.2,10.4-61.7,29.8-87.4l2.9-3.8
			c29.2-38.7,72.6-66.5,122.3-78.6l37.8-9.2c18.7-4.5,37.8-7.6,57.1-9.3l77.5-6.6C690.3,373,712.8,372,735.2,372 M735.2,346
			c-23.1,0-46.4,1-69.4,2.9l-77.5,6.6c-20.5,1.7-41.1,5.1-61,9.9l-37.8,9.2c-55.5,13.5-104.1,44.8-136.9,88.2l-2.9,3.8
			c-22.9,30.4-35.1,66-35.1,103.1v4c0,25.1,7,50,20.2,72c13,21.6,31.9,40,54.5,53.2l0.1,0.1c44.6,25.9,81.7,39.4,116.6,42.3
			l67.5,8.2l0.5,0.1l0.5,0c1.3,0.1,2.9,0.2,5.1,0.2c10,0,36.3-1,57.5-1.9c11.4-0.4,24.3-0.9,26.5-1l1.1,0l1.1-0.1l93.9-7.8l6.1,10.1
			l1.3,2.2l1.7,1.9c28,31,64.1,55.5,104.5,71l2.6,1l2.8,0.4l61.6,9.2l94.4,14.1l-74.3-60l-39.8-32.2c-13.1-15.7-22.2-33.3-27.2-52.4
			l-0.5-2.1l24.3-13.1c50.9-27.4,87.2-73.6,99.5-126.9l0.2-1c5-21.7,5.2-43.7,0.6-65.4c-4.6-21.6-13.7-41.8-27.1-60
			c-32.6-44.3-84.3-74.2-141.7-81.9l-4.6-0.6C808,348.4,771.5,346,735.2,346L735.2,346z"/>
	</g>
	<path class="st2" d="M533.4,390.7l-37.8,9.2c-49.7,12.1-93.1,39.9-122.3,78.6l-2.9,3.8c-19.4,25.7-29.8,56.2-29.8,87.4v4
		c0,41.6,23.3,80.4,61.7,102.7l0.1,0c31.7,18.4,68.8,35.9,106.2,39l68,8.2c7.3,0.6,79.7-2.7,87-2.7l110-9.1l14.4,24
		c25.4,28.1,57.8,50.1,94.5,64.1L944,809l-41.7-33.7c-16.4-19-28-41-34.1-64.5l-5.7-21.8l42.3-22.7c44.4-23.9,75.8-63.8,86.5-109.9
		l0.2-1c8.3-36,0.3-73.6-22.2-104.2l0,0c-28.5-38.8-73.7-64.7-124.3-71.5l-4.6-0.6c-57.1-7.7-115-9.1-172.5-4.2l-77.5,6.6
		C571.2,383.1,552.1,386.2,533.4,390.7z"/>
	<g>
		<polyline class="st3" points="763.5,712.6 773.5,711.7 778.7,720.3 		"/>
		<path class="st4" d="M783.7,728.7l4.2,7c25.4,28.1,57.8,50.1,94.5,64.1l46.8,7"/>
		<polyline class="st3" points="934.1,807.5 944,809 936.2,802.7 		"/>
		<path class="st5" d="M928.5,796.4l-26.1-21.1c-16.4-19-28-41-34.1-64.5l-1.9-7.3"/>
		<polyline class="st3" points="865,698.6 862.5,688.9 871.3,684.2 		"/>
		<path class="st6" d="M880.1,679.4l24.6-13.3c44.4-23.9,75.8-63.8,86.5-109.9l0.2-1c8.3-36,0.3-73.6-22.2-104.2l0,0
			c-28.5-38.8-73.7-64.7-124.3-71.5l-4.6-0.6c-57.1-7.7-115-9.1-172.5-4.2l-77.5,6.6c-19.3,1.6-38.4,4.7-57.1,9.3l-37.8,9.2
			c-49.7,12.1-93.1,39.9-122.3,78.6l-2.9,3.8c-19.4,25.7-29.8,56.2-29.8,87.4v4c0,41.6,23.3,80.4,61.7,102.7l0.1,0
			c31.7,18.4,68.8,35.9,106.2,39l68,8.2c7.3,0.6,79.7-2.7,87-2.7l95.1-7.9"/>
	</g>
</g>
<rect x="282.7" y="470" transform="matrix(0.996 -8.960125e-02 8.960125e-02 0.996 -48.8379 72.6632)" class="st7" width="1004.4" height="220.6"/>
<text transform="matrix(0.996 -8.960000e-02 8.960000e-02 0.996 286.2057 641.6893)" class="st8 st9 st10">Whisper-It</text>
<g>
	<g>
		<path class="st1" d="M665.1,1027.9c2.9-1.5,5.9-2.9,8.8-4.4c1.7-0.9,0.2-3.5-1.5-2.6c-2.9,1.5-5.9,2.9-8.8,4.4
			C661.9,1026.2,663.4,1028.7,665.1,1027.9L665.1,1027.9z"/>
	</g>
</g>
</svg>
