<?xml version="1.0" encoding="utf-8"?>
<!-- Generator: Adobe Illustrator 22.0.1, SVG Export Plug-In . SVG Version: 6.00 Build 0)  -->
<svg version="1.1" id="Layer_1" xmlns="http://www.w3.org/2000/svg" xmlns:xlink="http://www.w3.org/1999/xlink" x="0px" y="0px"
	 viewBox="0 0 372.5 227.5" style="enable-background:new 0 0 372.5 227.5;" xml:space="preserve">
<style type="text/css">
	.st0{fill:#F7FFF6;}
	.st1{fill:none;}
</style>
<path class="st0" d="M337,98.7L330.5,84l-6.1-9.1c-5.2-7.9-12.1-14.5-20-19.6l-6-3.8c-7.9-5-16.4-9-25.3-12c-7.1-2.4-14.5-3.7-22-4
	C219.5,34.5,132,31.9,125.5,36l-6.7,1c-8.8,1.3-17.4,3.7-25.7,7.1l-2,0.8l0.1-0.3l-8.3-2.5c-10.8-3.3-20.7-8.9-29-16.6l-9.7-9
	L53.5,41c2.9,7.7,7,14.8,11.9,21.3c-3.8,4.4-7,9.5-9.2,14.9l-4.8,11.5c-2.6,6.2-3.9,12.8-3.9,19.5v6.8c0,7.3,1.5,14.6,4.3,21.3
	l7.2,17.2c1,2.4,2.3,4.6,3.8,6.6l5.5,7.1c6.1,7.8,13.5,14.5,22,19.6l0.5,0.3c7.7,4.6,16.1,8.1,24.8,10.4h0c6.5,1.7,13.3,2.6,20,2.6
	h102.4c3,0,5.9-0.3,8.8-0.8l33.6-6.2l12.1-4.7c12.4-4.8,23.6-12.3,32.8-21.9l1-1.1c4.6-4.8,8.1-10.6,10.2-16.9l0.4-1.3
	c2.9-8.7,4.4-17.7,4.4-26.9C341.5,112.8,340,105.5,337,98.7z"/>
<rect x="90" y="80.5" class="st1" width="217.5" height="80.5"/>
</svg>
