<?xml version="1.0" encoding="utf-8"?>
<!-- Generator: Adobe Illustrator 22.0.1, SVG Export Plug-In . SVG Version: 6.00 Build 0)  -->
<svg version="1.1" id="Layer_1" xmlns="http://www.w3.org/2000/svg" xmlns:xlink="http://www.w3.org/1999/xlink" x="0px" y="0px"
	 viewBox="0 0 750 1334" style="enable-background:new 0 0 750 1334;" xml:space="preserve">
<style type="text/css">
	.st0{opacity:0.9;}
	.st1{opacity:0.6;}
	.st2{fill:#FF4AFC;}
</style>
<g class="st0">
	
		<image style="overflow:visible;opacity:0.75;" width="623" height="194" xlink:href="5CBC4AEE.png"  transform="matrix(1 0 0 1 74 515)">
	</image>
	<g>
		<g>
			
				<image style="overflow:visible;opacity:0.75;" width="594" height="166" xlink:href="5CBC4AF2.png"  transform="matrix(1 0 0 1 82 523)">
			</image>
			<rect x="90" y="531.5" width="563.5" height="135.5"/>
		</g>
		<g class="st1">
			<path class="st2" d="M653.5,531.5V667H90V531.5H653.5 M653.5,523.5H90c-4.4,0-8,3.6-8,8V667c0,4.4,3.6,8,8,8h563.5
				c4.4,0,8-3.6,8-8V531.5C661.5,527.1,657.9,523.5,653.5,523.5L653.5,523.5z"/>
		</g>
	</g>
</g>
</svg>
