<?xml version="1.0" encoding="utf-8"?>
<!-- Generator: Adobe Illustrator 22.0.1, SVG Export Plug-In . SVG Version: 6.00 Build 0)  -->
<svg version="1.1" id="Layer_1" xmlns="http://www.w3.org/2000/svg" xmlns:xlink="http://www.w3.org/1999/xlink" x="0px" y="0px"
	 viewBox="0 0 1334 1334" style="enable-background:new 0 0 1334 1334;" xml:space="preserve">
<style type="text/css">
	.st0{fill:#FF4AFC;}
	.st1{fill:#FFFFFF;}
	.st2{fill:none;stroke:#6A005C;stroke-width:30;stroke-miterlimit:10;}
</style>
<g>
	<path class="st0" d="M455.5,369.5l20.1-13.9c44.1-30.4,97.4-44.9,150.7-39.8c1.4,0.1,2.7,0.3,4.1,0.4
		c60.5,6.9,108.9,18.7,135.1,34.2c28.1,16.6,53.1,35.3,85.7,84.4c27,40.7,37.6,90.1,29.8,138.3l-0.3,2.2
		c-10,62.2-52,114.2-110.3,137.1c-19,7.4-33.3,13-33.3,13c-28.9,11.3-59.1,18.9-89.9,22.7l-50.6,4.4v0c4.6,35.5,17.8,69.3,38.5,98.4
		l7.5,10.6l-256-129l187-200l-1.9,13.5c-5.4,38.1-4.4,76.7,2.9,114.5l4,9l16,1c48-6,65-12.2,94.3-21.9c0.3-0.1,8.5-3.2,8.8-3.3
		c9.6-3.2,21.4-6.9,29.6-12.9l11.9-9.6c0.3-0.2,10.7-11.4,11-11.7c17.1-14.3,21.9-44.8,22.5-73.3l0-1.2c0.7-32.9-11.1-64.6-33-88.9
		c-3.5-3.9-7.1-7.9-10.5-11.7c-17.1-19-40.3-33.4-65.6-37l-37.7-6.4c-1.2-0.2-8.3-0.3-9.5-0.5c-40.8-5.1-76.1,7.7-110.9,29.6
		l-15.8,9.9L455.5,369.5z"/>
	<g>
		
			<image style="overflow:visible;opacity:0.75;" width="610" height="693" xlink:href="1159782.png"  transform="matrix(1 0 0 1 327 275)">
		</image>
		<path class="st1" d="M605,314.8c7.1,0,14.2,0.3,21.3,1c1.4,0.1,2.7,0.3,4.1,0.4c60.5,6.9,108.9,18.7,135.1,34.2
			c28.1,16.6,53.1,35.3,85.7,84.4c27,40.7,37.6,90.1,29.8,138.3l-0.3,2.2c-10,62.2-52,114.2-110.3,137.1c-19,7.4-33.3,13-33.3,13
			c-28.9,11.3-59.1,18.9-89.9,22.7l-50.6,4.4c4.6,35.5,17.8,69.3,38.5,98.4l7.5,10.6l-256-129l187-200l-1.9,13.5
			c-5.4,38.1-4.4,76.7,2.9,114.5l4,9l16,1c48-6,65-12.2,94.3-21.9c0.3-0.1,8.5-3.2,8.8-3.3c9.6-3.2,21.4-6.9,29.6-12.9l11.9-9.6
			c0.3-0.2,10.7-11.4,11-11.7c17.1-14.3,21.9-44.8,22.5-73.3l0-1.2c0.7-32.9-11.1-64.6-33-88.9c-3.5-3.9-7.1-7.9-10.5-11.7
			c-17.1-19-40.3-33.4-65.6-37l-37.7-6.4c-1.2-0.2-8.3-0.3-9.5-0.5c-6-0.8-11.9-1.1-17.8-1.1c-33.5,0-63.5,12-93.1,30.7l-15.8,9.9
			l-34-62l20.1-13.9C513.8,329.3,559,314.8,605,314.8 M605,283.8v31V283.8c-26,0-51.9,4-77,11.9c-24.9,7.9-48.4,19.4-70,34.3
			L437.9,344l-23,15.9l13.5,24.5l34,62l15.8,28.8l27.8-17.4l15.8-9.9l0,0l0,0c28.1-17.7,52.4-25.9,76.6-25.9c4.6,0,9.3,0.3,13.9,0.9
			c1.8,0.2,3.5,0.3,7.1,0.4c0.7,0,1.8,0.1,2.5,0.1l36.2,6.1l0.4,0.1l0.4,0.1c16.5,2.4,33.6,12.2,46.9,27l10.6,11.7
			c16.7,18.5,25.6,42.5,25,67.6l0,1.3c-0.8,40.2-10.3,49.2-11.4,50.1c-1.6,1.4-1.8,1.6-6.9,7c-1.4,1.5-3.8,4.1-5.2,5.5l-9.7,7.8
			c-3.7,2.5-11.9,5.3-18,7.3c-0.9,0.3-1.8,0.6-2.6,0.9c-0.6,0.2-0.6,0.2-5.1,1.9c-1.6,0.6-3.3,1.2-4,1.5l-3.6,1.2
			c-23.4,7.8-38.5,12.9-72.7,17.7c-4.1-29.1-4-58.6,0.1-87.9l1.9-13.5l13.7-97.2l-67,71.7l-187,200l-28.3,30.2l37,18.6l256,129
			l111.4,56.1l-72.1-101.7l-7.5-10.6c-11.4-16.1-20.2-33.9-26-52.6l15.5-1.3l0.5,0l0.5-0.1c33.4-4,66.2-12.3,97.5-24.6
			c0,0,14.3-5.6,33.3-13c33.7-13.2,63.5-35,86.2-63.2c22.7-28.2,37.7-62,43.5-97.8l0.3-2.2c9.1-56.2-3.2-113.1-34.6-160.4
			c-33.9-51.1-61.7-73.8-95.7-93.9c-29.8-17.6-79.4-30.5-147.4-38.3c-1.5-0.2-3.1-0.3-4.6-0.5C621.3,284.2,613.1,283.8,605,283.8
			L605,283.8z"/>
	</g>
	<path class="st2" d="M455.5,369.5l20.1-13.9c44.1-30.4,97.4-44.9,150.7-39.8c1.4,0.1,2.7,0.3,4.1,0.4
		c60.5,6.9,108.9,18.7,135.1,34.2c28.1,16.6,53.1,35.3,85.7,84.4c27,40.7,37.6,90.1,29.8,138.3l-0.3,2.2
		c-10,62.2-52,114.2-110.3,137.1c-19,7.4-33.3,13-33.3,13c-28.9,11.3-59.1,18.9-89.9,22.7l-50.6,4.4v0c4.6,35.5,17.8,69.3,38.5,98.4
		l7.5,10.6l-256-129l187-200l-1.9,13.5c-5.4,38.1-4.4,76.7,2.9,114.5l4,9l16,1c48-6,65-12.2,94.3-21.9c0.3-0.1,8.5-3.2,8.8-3.3
		c9.6-3.2,21.4-6.9,29.6-12.9l11.9-9.6c0.3-0.2,10.7-11.4,11-11.7c17.1-14.3,21.9-44.8,22.5-73.3l0-1.2c0.7-32.9-11.1-64.6-33-88.9
		c-3.5-3.9-7.1-7.9-10.5-11.7c-17.1-19-40.3-33.4-65.6-37l-37.7-6.4c-1.2-0.2-8.3-0.3-9.5-0.5c-40.8-5.1-76.1,7.7-110.9,29.6
		l-15.8,9.9L455.5,369.5z"/>
</g>
</svg>
